<svg version="1" xmlns="http://www.w3.org/2000/svg" width="346.667" height="346.667" viewBox="0 0 260.000000 260.000000"><path d="M.6 2.2C.3 3.5 0 5.7 0 7.2V10l10.8.1c5.9 0 11.7.2 13 .3 1.3.2 2.5-.1 2.7-.5.3-.4-2.2-1-5.5-1.3-3.3-.3-8.7-.9-12.1-1.2l-6.1-.6.7-3.4C3.9.8 3.7 0 2.7 0 1.9 0 1 1 .6 2.2zM11 .4c0 1 7.4 4.4 11 5.1 4.7.8 15.6-1 18.9-3.2L43.5.5 40.8.2c-1.5-.2-3.8.4-5 1.2-2.6 1.8-10.3 2.1-16.3.5C12 0 11-.2 11 .4zM57.4 4.7c1.2 8.2 8.8 38.1 10.1 40 2.1 2.8 2.4 1.2 1-4.2-1.1-4.3-1.1-5.2.2-6.2 1.2-.9 1.2-1.8.3-5.4-.6-2.3-.9-5.6-.6-7.4.4-1.9-.2-5.6-1.4-9.6C63.3.3 63.1 0 59.8 0h-3l.6 4.7zM90.7.7C89.2 2.2 90.2 3 93.6 3c3.1 0 3.5-.2 2.4-1.5-1.3-1.6-4.2-2-5.3-.8zM117.6 1.5c-.4 1.1.1 1.5 1.9 1.5 1.4 0 2.8 0 3.3.1.4 0 .8-.7 1-1.5.5-2.1-5.4-2.2-6.2-.1zM160 1.5c0 1.8 5.7 1.6 6.5-.3.3-.8-.7-1.2-3-1.2-2.4 0-3.5.5-3.5 1.5zM187.5 2c-1.8 2-1.7 2 .8 2 1.4 0 3.1.8 3.6 1.7.8 1.5 1 1.1 1.1-2 0-2.9-.4-3.7-1.8-3.7-1.1 0-2.7.9-3.7 2zM235.8 3.5c-.4 3.1-.1 3.5 1.9 3.5s2.3-.5 2.3-3.5c0-2.8-.4-3.5-1.9-3.5-1.4 0-2 .9-2.3 3.5zM256 3c1.8 6.3 4 6.9 4 1 0-3.6-.3-4-2.4-4-2.2 0-2.4.3-1.6 3zM134 2c0 .5.5 1 1 1 .6 0 1-.5 1-1 0-.6-.4-1-1-1-.5 0-1 .4-1 1zM43.8 7c-.2 1.7-1.1 2.6-2.8 3-2.4.5-2.5.9-2.8 8.5-.1 5.6.1 7.5.8 6.5.5-.8 1-1.1 1.1-.5.1.5.2 1.7.3 2.5.3 3 5 16 5.8 16 1 0 1-.2-.2-7.5-.5-3.2-.6-6.2-.1-6.5.5-.3.5-3.4 0-6.9-.7-4.6-.6-6.7.2-7.2 1.1-.7.5-5.9-1.1-8.9-.6-1-.9-.8-1.2 1zM245 7c0 .5 1.4 1 3 1 1.7 0 3-.5 3-1 0-.6-1.3-1-3-1-1.6 0-3 .4-3 1zM191.6 11.7c-.4 1.6-.9 11.9-.7 16.5.1 1 .8 1.8 1.6 1.8 1.2 0 1.5-1.7 1.5-9.4 0-8.8-1.1-13-2.4-8.9zM152.4 20.7c.4 15.8.5 16.3 1.9 15.7.9-.3 1.3-3.4 1.5-10.5.2-8.6-.1-10.4-1.7-12.5l-1.9-2.4.2 9.7zM13.8 13.7c.7.3 1.6.2 1.9-.1.4-.3-.2-.6-1.3-.5-1.1 0-1.4.3-.6.6zM87.2 15c0 1.4.2 1.9.5 1.2.2-.6.2-1.8 0-2.5-.3-.6-.5-.1-.5 1.3zM98.7 15.7c-1.4 1.3-.6 2.5.8 1.3 1.2-1 1.8-1 3 0 1.4 1.1 1.4 1.5-.1 3.7-1.8 2.9-1.6 3.4 1.4 2.6 2.3-.5 3.1-2.3 1.1-2.3-.6 0-.9-.7-.5-1.5.9-2.4-.4-4.5-2.8-4.5-1.3 0-2.6.3-2.9.7zM129.5 17.1c-.4.6-.5 1.3-.2 1.6.8.7 4.7-.7 4.7-1.8 0-1.3-3.7-1.1-4.5.2zM137 18c-1.3.8-1.2 1 .3 1 .9 0 1.7-.5 1.7-1 0-1.2-.1-1.2-2 0zM.4 26.6C.3 32.9.6 35 1.5 35c.8 0 1.6-.8 1.8-1.8.4-1.3.5-1.2.6.5 0 1.2 1 2.4 2.1 2.8 1.1.3 2 1.3 2 2.1 0 1.8-1.4 1.8-2.9 0C4.5 37.8 3 37 2 36.7c-1.8-.5-2 0-2 4.9C0 46.8.1 47 2.6 47c1.5 0 3.3-.8 4-1.8 1.2-1.6 1.3-1.5 1.4.5 0 2-.5 2.3-4 2.3H0v30.9l5.3.3 5.2.3-.1 6c-.1 3.3-.2 8.1-.3 10.7L10 101H0v56h10.3c5.6 0 12.2.2 14.7.3 3 .2 5.1-.2 6.3-1.2 1.7-1.4 2-1.4 3-.1.7.8 2.3 1.5 3.7 1.5 2.3 0 2.5.4 2.8 4.9l.3 4.9-20.5-.6-20.6-.6v39.7l11.8.6c6.4.4 14.4 1.1 17.8 1.6 3.3.6 7.5 1 9.2 1h3.1l-.6-8.9c-.5-7.6-.3-9.2 1.1-10.7 1.3-1.3 1.6-2.6 1.1-5.7-.4-2.4-.3-4.2.3-4.6.6-.3 1.2-3.5 1.5-7 .2-3.6.9-6.6 1.7-7.1.9-.6 1.1-2.3.5-6.5-.4-3.8-.3-6 .4-6.4.7-.5.8-3.1.4-7.4-.4-4.5-.9-6.5-1.6-5.8-1.8 1.8-6.7-3.9-6.7-7.7 0-2-.6-3.5-1.5-3.8-.9-.4-1.5-1.9-1.5-4.2 0-2.8.3-3.3 1.2-2.4 1.5 1.5 3.2 1.6 2.3.2-.4-.7.3-.8 2.2-.4 1.5.4 2.9.8 3 .9.2.1.6 3.6.9 7.8.4 4.2 1 7.4 1.5 7.2.4-.3 1 .3 1.3 1.2.3 1 .3-.7 0-3.7-.5-5.7.9-12 1.9-9 .8 2 3.7 21.7 4.2 27.7.8 9.5 5.5 39.9 7 44.3l1.4 4.5-.5-6c-.3-3.3-2-15.7-3.9-27.5-1.8-11.8-4.1-27.7-5-35.3-1.3-10.4-2.1-13.7-3-13.3-1.9.7-2.8-2.5-1.2-4.2 2.1-2 5.7.4 5.7 3.9 0 2.4 4.9 32.8 7.1 43.7.6 2.9 1.4 5 1.8 4.7.4-.2-.3-6.9-1.5-14.7-2.1-12.7-3.1-24-1.7-18.3.3 1.1 1.2 2.9 1.9 4 1.4 1.9 1.4 1.9 1.4-.4 0-4.4-6.3-39.6-7.2-40.6-1.1-1.1-.1 12.2 1.2 17 .5 1.6 1.1 6.4 1.3 10.5.5 7.2.5 7-1.6-4-1.1-6.3-2.6-12-3.3-12.5-.6-.6-1.5-2.6-1.8-4.5-1.9-9.8-1.9-10-.2-10 .9 0 1.6.5 1.6 1.1 0 .5.4.8.8.5 1.2-.7 1.3-6.4.1-7.1-.5-.4-.9-1.7-.9-3s-.4-3.4-.9-4.7c-.6-1.3-3.3-11.3-6.2-22.3-2.9-11-5.8-21.5-6.6-23.3-1.4-3.5-3.3-4.3-3.3-1.5 0 1-.5 2.5-1.1 3.3-.8 1.2-.9.9-.5-1.2.7-2.9-1.1-4.9-2.4-2.8-.6 1-1.1.7-2.1-.9-.8-1.1-2.2-2.1-3.1-2.1-2.3 0-2.3-1.7 0-2.3 1.6-.4 1.6-.4-.1-1.2-1.2-.5-2.2-.2-3.1 1-.9 1.3-2 1.6-4.3 1.1-2.8-.6-2.9-.9-2.3-4.4l.6-3.7 5.9.3c3.8.2 5.6 0 5-.6C30 19.7 23 19 15 18.7L.5 18.2l-.1 8.4zm22.9 18.8c2.1 1.6 2.2 2.7.2 2-.8-.4-1.5-.1-1.5.5s-.6.8-1.4.5c-.8-.3-1.2-1.3-.9-2.5.6-2.2 1.2-2.3 3.6-.5zm7.7.9c0 .7-.9 3-2 5.1-1 2.2-1.7 4.3-1.4 4.7.6 1.1.1 1.1-2 .3-1.4-.5-1.4-.9-.1-3.4.8-1.6 1.7-3.9 1.9-5.2.3-1.3.5-2.4.5-2.6.3-.9 3.1.1 3.1 1.1zm1.9 3.3c-.6 1.6-1.9 6-2.8 9.7-1 3.7-2.1 6.7-2.4 6.7-3.2-.6-10.7-4.7-10.7-5.9 0-1.2.2-1.2 1.8.1 2.8 2.5 6 3.8 7.6 3.2 2.5-.9 1.9-2.4-.9-2.4-1.4 0-2.5-.4-2.5-.9 0-1.3 2.8-2.2 3.5-1.1 1.2 1.9 2.1.9 3.4-3.8 2.1-6.9 3.1-9.5 3.7-9 .2.3 0 1.8-.7 3.4zm4.3 9.6c-.6.6-.7 0-.4-1.9.5-2.1.7-2.3 1-.9.2 1 0 2.2-.6 2.8zm-.9 5c-.6 4.8-3.4 19.2-4 20.1-.2.4-.8.5-1.2.2C29.7 83.7 34.5 61 36 61c.4 0 .5 1.5.3 3.2zM32 68c0 .5-.6 1-1.2 1-1 0-1 .2-.1.8 1 .6.9 1.3-.1 3.3-.7 1.3-1.1 3-.8 3.7.2.6-.4 1.2-1.3 1.2-1.3 0-1.6-.5-1-2.3.4-1.2.9-3.7 1.2-5.5.3-1.8 1.1-3.2 1.9-3.2.8 0 1.4.4 1.4 1zm-3 13c-1.9 1.3-3 1.3-3 0 0-.6 1-1 2.3-1 1.8 0 1.9.2.7 1zm5 10.4c0 1.9-.4 3.7-1 4.1-.5.3-.7 1.2-.3 2 .3 1-.1 1.5-1.2 1.5-1.3 0-1.6-.5-1-2.3.4-1.2.9-3.6 1-5.2.4-3.8.3-3.5 1.5-3.5.6 0 1 1.5 1 3.4zm3.5 1.3c-1.3 8.2-1.2 11.3.2 10.1 1-.8 1.3-.7 1.3.6 0 1-.8 1.6-2.3 1.6-2.3 0-2.3-.2-1.6-6.8.5-3.7.8-7.3.8-8 .1-.6.6-1.2 1.1-1.2.6 0 .8 1.5.5 3.7zm-5 9.3c-.3.5-1 1-1.6 1-.5 0-.9-.5-.9-1 0-.6.7-1 1.6-1 .8 0 1.2.4.9 1zm7.5 5.5c0 .8-.4 1.5-.8 1.5-.5 0-.9-.7-.9-1.5s.4-1.5.9-1.5c.4 0 .8.7.8 1.5zm-.1 5.4c-1.5.5-2.2-.6-1.4-1.9.6-.9 1-.9 1.6.1.5.8.4 1.5-.2 1.8zM15 134c0 .5-.4 1-.9 1-.6 0-1.3-.5-1.6-1-.3-.6.1-1 .9-1 .9 0 1.6.4 1.6 1zM198.7 20.7c-1.1 1-.8 4.3.3 4.3.6 0 1-.7 1-1.5s.5-1.5 1-1.5c.6 0 1 .8.8 1.7-.3 1.5.6 1.8 5 2.1 5 .2 5.2.1 5.2-2.3 0-2.5-3-3.8-3-1.3-.1.8-.6.6-1.4-.5-1.3-1.7-7.5-2.4-8.9-1zM80 22.5c-1.4 1.7-6 2-6 .5 0-.6-.4-1-1-1-.5 0-1 1.6-1 3.6 0 3.4.2 3.6 2.5 3 1.7-.4 2.5-.2 2.5.7 0 1.6 4.2 5.7 5.8 5.7.9 0 1-.5.2-1.9-1.4-2.8-1.2-5.7.5-7.1 2-1.7 1.9-2.7-.4-3.9-1.4-.8-2.2-.7-3.1.4zM88.1 23.5c0 1.1.9 3.1 2 4.5l2 2.5-1.4-3c-.8-1.7-1.7-3.7-2-4.5-.4-1.1-.6-.9-.6.5zM175.5 24c-1 1.1-2.4 2-3.2 2-1.6 0-1.6-.4.1 4.5 1.4 3.9 1.5 4 6.5 4.3 4.8.3 5.1.2 5.7-2.5.3-1.5.7-3.3.9-3.8.1-.6-.5-2.2-1.3-3.8-2-3.3-6-3.6-8.7-.7z"/><path d="M26.8 23.7c.7.3 1.6.2 1.9-.1.4-.3-.2-.6-1.3-.5-1.1 0-1.4.3-.6.6zM228.2 26c0 1.9.2 2.7.5 1.7.2-.9.2-2.5 0-3.5-.3-.9-.5-.1-.5 1.8zM121.9 27.7c-.2 2.3-.2 5 .2 6 1 2.9 1.5.1.9-5.2l-.6-5-.5 4.2zM96.7 25.7c-1.3 1.3-.7 2.1 1.3 1.6 1.1-.3 1.7-.9 1.4-1.4-.6-1.1-1.8-1.2-2.7-.2zM113.6 25.9c-.3.5-.3 1.6 0 2.5.3.9.1 1.6-.6 1.6-.6 0-.8-.5-.4-1.2.5-.8.2-.9-1-.5-1.1.5-1.5.3-1-.5s.2-.9-1.2-.4c-1 .5-2.6.8-3.4.9-.8 0-2.1.5-2.9 1.1-.8.6-2.4 1.1-3.5 1.1-1.4 0-2.1.6-2.1 2 0 1.9.8 2 10.4 2.3 9.6.3 10.3.1 9.7-1.5-.4-1-1-3-1.3-4.6-.6-3-1.8-4.3-2.7-2.8zM35 28.1c0 .6-.9.8-2.1.4-1.8-.6-1.9-.5-.8 1.3 1.6 2.5 4.9 1.8 4.2-.9-.6-2.1-1.3-2.5-1.3-.8zM201.9 29.7c-3.2.4-3.7.8-4.1 3.4-.3 1.6-.2 3.1 0 3.4 1.3 1.2 8.7.4 10.5-1.3 1.9-1.6 2-1.6 1.4 0-.4 1.2-.1 1.8.8 1.8 1 0 1.5-1.1 1.5-3.4 0-2.6-.5-3.5-2.2-4-1.3-.3-2.7-.5-3.3-.4-.5.1-2.6.3-4.6.5zM206 34c0 .5-.4 1-1 1-.5 0-1-.5-1-1 0-.6.5-1 1-1 .6 0 1 .4 1 1zM213 33.9c0 2.3 3.2 2.9 6 1.1 1.8-1.1 1.3-1.6-2.7-2.5-2.9-.6-3.3-.4-3.3 1.4zM228.2 35c0 1.9.2 2.7.5 1.7.2-.9.2-2.5 0-3.5-.3-.9-.5-.1-.5 1.8zM221 34.4c0 .8 1.3 1.6 3 1.8 2.1.3 3 0 3-1 0-.8-.6-1.2-1.5-.9-.8.4-1.7.2-2-.3-.9-1.5-2.5-1.2-2.5.4zM59.1 44.6c0 1.1.3 1.4.6.6.3-.7.2-1.6-.1-1.9-.3-.4-.6.2-.5 1.3zM124.5 47.1c-.4 1-1.1 1.9-1.6 1.9-1.3 0-1.1 4.3.5 8.1.7 1.9 1.1 4.8.9 6.6-.5 2.8-.2 3.3 2.1 3.9 1.5.3 2.9.4 3.2.2.2-.3 0-2.8-.6-5.7-.8-4.3-.7-5.5.5-6.7 1.1-1.2 1.2-2 .3-3.9-1.3-2.9.3-5.5 3.3-5.5 2.5 0 2.4 1.6-.1 2.3-1.3.3-1.8 1-1.4 2.1.6 1.6 2.4 2.2 2.4.8 0-.4 1.2-.7 2.8-.6 1.5.1 3.7.2 5 .3 3.9.2 1.4 2.1-2.8 2.1-3.9 0-5.9 1.3-4 2.5.6.4.8 1.5.5 2.5-.3 1-.1 2.1.5 2.5.7.5.5 1.1-.7 2-1.4 1.1-1.6 1.8-.7 3.2 1 1.5 2.8 1.8 12.1 2.1l10.9.2-.2-10.1c-.1-5.9-.7-10.6-1.3-11.2-.7-.7-6.6-1.2-16.1-1.4-14-.1-14.9 0-15.5 1.8zm24 4.9c.4.6 1 .8 1.5.5.4-.3 1 .2 1.4 1 .3.9 0 1.5-.9 1.5-.8 0-1.5.4-1.5 1 0 .5.9 1 2 1s2 .5 2 1.1c0 1.3-3.9.2-5.8-1.8-.8-.7-2.3-1.1-3.3-.8-1.1.4-1.9.2-1.9-.4 0-.6 1.1-1.1 2.5-1.1 1.8 0 2.3-.4 1.9-1.5-.7-1.7 1.1-2.1 2.1-.5zm-6.5 8.1c0 .6-2.4 1.9-3.6 1.9-.2 0-.4-.6-.4-1.4 0-.9.9-1.4 2-1.3 1.1.1 2 .4 2 .8zm11 2.9c0 .5-.4 1-1 1-.5 0-1-.5-1-1 0-.6.5-1 1-1 .6 0 1 .4 1 1zm-3 1.2c0 1.1-3.1 1-5-.2-1-.6-.5-.9 1.8-.8 1.8.1 3.2.5 3.2 1zM168.7 45.7c-.4.3-.7 1.6-.7 2.8 0 1.7-.9 2.5-3.9 3.3l-3.8 1.2-.7 7.2c-.5 5.4-.3 7.5.7 8.5s1.1 3 .6 8.1c-.5 3.7-.8 10.2-.8 14.4l-.1 7.7 3.8-.6c2-.3 4.1-.9 4.6-1.4.5-.4 1.5-.1 2.3.7 1.7 1.6 4.2 1.8 6.3.4 1.3-.9 1.2-1.2-.4-2.5-1-.8-2.4-1.6-3-1.9-1.9-.8 1.7-2.6 3.9-2 2.7.8 5.5 3.4 5.5 5.1 0 .8 1.2 1.3 3.5 1.3 2.2 0 3.8.6 4.1 1.5 1.3 3.2 2.1 1.2 2.7-6.1.8-8.3-.3-12-3.1-10.9-.9.3-7.4.3-14.4-.1l-12.8-.7V78c0-5.2 2.3-6.2 13.5-5.5 5 .2 10.7.9 12.7 1.4 3.5.8 3.7.7 3.7-1.8 0-1.4.1-3.5.2-4.6.1-1.1.1-4.3 0-7.1-.1-5-.2-5.1-4.3-7-2.4-1-4.6-2.3-5-2.8-.4-.6-.9-.3-1.2.7-.4.9-.9 2.5-1.3 3.4-.4 1-.7 2.5-.7 3.3-.1 1-1.4 1.6-3.9 1.8-3.5.3-3.8.1-3.2-1.7.3-1 .1-2.2-.5-2.6-.5-.3-1-1.7-1-3s-.5-2.7-1.1-3.1c-.6-.3-.9-1.5-.6-2.5.5-1.9-.3-2.5-1.6-1.2zM183.4 64c.8 1-.3 1.1-5.1.7-3.8-.4-6.3-.2-6.3.3 0 .9 1.6 1.2 8.7 1.4 4.1.2 3.6 1.6-.5 1.6-3.3 0-4.2.4-4.2 1.7-.1 1.7-.1 1.7-1.1 0-.5-.9-2.1-1.7-3.4-1.7-1.3 0-2.7-.5-3-1-.3-.6.1-1 .9-1 .9 0 1.6-.5 1.6-1 0-.6-.7-1-1.5-1s-1.5-.3-1.5-.8c0-1.2 14.1-.5 15.4.8zM173 70c0 .5-1.8 1-4 1s-4-.5-4-1c0-.6 1.8-1 4-1s4 .4 4 1zm15 .2c0 .5-2.5.8-5.5.8s-5.5-.3-5.5-.8c0-.4 2.5-.7 5.5-.7s5.5.3 5.5.7zm1.8 15.3c1.2 1.2-3.1 3.6-5.2 2.8-2.5-.8-17-.6-19.7.2-1.4.5-1.9.2-1.9-1.4 0-1.4.8-2.1 2.8-2.4 3.9-.7 23.1-.1 24 .8z"/><path d="M177.5 47.1c-1.2 1.9.5 2.3 2.2.6 1.6-1.6 1.6-1.7.1-1.7-.9 0-2 .5-2.3 1.1zM209.8 50.2c0 2.4 0 5.4.1 6.7.4 4-.8 7.3-2.4 6.7-.8-.3-1.7-.1-2 .4-1 1.5-3.5 1.2-3.5-.5 0-.9.8-1.4 2.3-1.2 1.5.1 2.1-.3 1.8-1.3-.2-.8-.3-2.3-.3-3.2.1-2.1-1-2.9-4.6-3.3-1.6-.2-3.2.4-3.9 1.4-1.7 2.2-1.6 3.4.3 2.7 1.3-.5 1.5-.2.9 1.1-.4 1-1 3-1.2 4.4-.4 2.1 0 2.7 1.8 3.2 1.2.3 3 .2 4-.4 2.6-1.3 5.5-1.1 6.9.6.8 1 3.1 1.5 7 1.5 9.1 0 9 .1 9-10 0-10.9-.4-12-4.3-12-2.9 0-3 .1-1.1 1.4 2.3 1.7 1.8 2.4-2.3 3.2-2.9.6-3.2.4-3.5-2.2-.2-2.1-.9-3-2.5-3.2-2.1-.3-2.3.1-2.5 4zm9.2 5.4c0 1.4.3 1.4 1.5.4 1.3-1.1 1.5-.8 1.5 2 0 4.4-2.6 7.3-5.1 5.9-2.2-1.1-2.5-5-.7-7.9 1.5-2.4 2.8-2.6 2.8-.4z"/><path d="M197.9 48.7c-1.2 1.5-1.2 1.6.4 1 1.6-.6 2.1.2 1.8 3-.3 1.9.7 1.5 1.9-.8.9-1.5.8-2.4-.1-3.5-1.5-1.8-2.4-1.8-4 .3zM243 51.5c0 4.9.4 4.7-9.2 3.1-2.9-.4-4.4.7-3.2 2.5.4.8.8.8 1.3 0 .4-.5 1.7-.8 2.9-.4 2.3.6 2.9 1.8 1.2 2.8-.5.3-1 1.5-1 2.5s-.5 2.2-1.2 2.6c-.6.4-.9.3-.6-.2.8-1.3-.9-5.4-2.2-5.4-.5 0-1 2.3-1 5.4 0 5.2.1 5.4 3.1 6 6 1.2 7.9.8 7.9-1.7 0-4.2 1.5-5.2 4.4-3.1 1.4 1.1 2.6 2.3 2.6 2.7 0 1.6-2.7 3.5-5.6 4-1.6.2.7.5 5.1.6 4.4.1 9 .4 10.3.7 2.2.6 2.2.5 2.2-9.9 0-8.7-.3-10.6-1.6-11.1-1.1-.4-1.5-1.4-1.2-3.1.3-1.4.1-2.5-.3-2.5-.5 0-.9 1.1-.9 2.3 0 2.7-2.8 5.7-5.3 5.7-1.9 0-3.1-3.2-2.2-6 .5-1.7.2-2-2.4-2-3 0-3.1.1-3.1 4.5zm-1.5 7.5c1.9.8 1.9.9-.2.9-1.2.1-2.5-.4-2.8-.9-.7-1.2.2-1.2 3 0zm14.8 7.5c1.6 2.3 1.7 2.7.3 4.1-.9.8-2.6 1.4-3.8 1.2-1.9-.2-2.2-.8-1.9-3.3.6-5.3 2.5-6 5.4-2zM60.1 49.6c0 1.1.3 1.4.6.6.3-.7.2-1.6-.1-1.9-.3-.4-.6.2-.5 1.3zM94.2 52c0 1.4.2 1.9.5 1.2.2-.6.2-1.8 0-2.5-.3-.6-.5-.1-.5 1.3zM61.1 53c-.2 2.5 7.9 42.2 8.9 43.9 2 3.5.9-3.9-3.9-24.4-2.7-11.6-5-20.3-5-19.5zM92.2 55.9c-.8.4-1.5 2.8-1.8 5.2l-.4 4.4 1-3.9c.6-2.2 1.5-4.5 2.1-5.3 1.3-1.5 1-1.6-.9-.4zM95.8 55.7c.7.3 1.6.2 1.9-.1.4-.3-.2-.6-1.3-.5-1.1 0-1.4.3-.6.6zM72.5 73c.4.6 1.1.8 1.6.5 1.4-.9 1.1-1.5-.7-1.5-.8 0-1.2.5-.9 1zM90.5 75.7c-1.2 4.5-1 26.6.2 27 .6.2 1.4-.5 1.8-1.6.7-2.2 3.5-1.8 3.5.5 0 .9 1.2 1.5 3.5 1.5 1.9.1 4.1.2 4.8.3.6.1 1.3-.9 1.5-2.2.5-3.4 4.7-5.8 7.7-4.4 2.5 1.1 3.3 3.6 1.6 4.6-.5.3-1.1-.3-1.4-1.3-.6-2.5-5-1.7-4.5.7.7 3.8 14.8 4.3 14.8.6 0-.8 1-1.4 2.3-1.4 3.4 0 5.5-1.6 3.9-3.2-.7-.7-1.2-4-1.2-8.3 0-7.9-1.1-10.9-2.9-7.9-.9 1.6-1 1.6-1.1.3 0-1.4-2-1.8-12.2-2.5-18.1-1.3-18.1-1.3-18.9 1.6-.5 1.9-.7 1.4-.8-2.3-.1-5.2-1.5-6.2-2.6-2zm24.9 5.3c.5.5-1.7.9-4.8.9-3.5 0-5.6-.5-5.6-1.2 0-.8-.3-.8-1.2.1-1.9 1.9 0 2.7 6.5 2.4 4.5-.2 6.7.1 8.2 1.3l2 1.6-2-.5c-5.7-1.3-8.1-1.5-9.5-.6-1.1.7-.7 1 2 1 2.4 0 3.1.3 2.3 1.1-1.4 1.4-7.9.7-7.6-.8.2-.9-.7-1.1-3-.6-2.7.5-3 .4-2-.8.7-.8 1-2.5.6-3.7-.5-2.2-.4-2.2 6.3-1.6 3.8.3 7.3 1 7.8 1.4zm3.6 9.5c0 .9-.6 1.2-1.5.9-.8-.4-1.5-1-1.5-1.5s.7-.9 1.5-.9 1.5.7 1.5 1.5zM237.2 83.1c.4 3.3 5.2 3.9 6.8 1 .9-1.9.8-2.1-1.4-2.1-1.3 0-3.2-.3-4.1-.6-1.3-.5-1.6-.2-1.3 1.7zM3.2 84.4c.1 1.4.5 2.3.9 2 .7-.4 0-4.4-.7-4.4-.2 0-.3 1.1-.2 2.4zM227.3 89c0 3.6.2 5 .4 3.2.2-1.7.2-4.7 0-6.5-.2-1.7-.4-.3-.4 3.3zM61.5 90.5c.3 2.7.2 4.1-.1 3-1.1-3.8-2.2-3.7-1.3.1.4 2.2.9 4.3.9 4.9.1.5.5.2.9-.8.5-1.3 1.2.4 2.5 5.8 1 4.2 2 7.4 2.3 7.1.8-.7-2.7-18.5-4.2-22.1-1.3-2.9-1.3-2.9-1 2zM75 88.9c0 1.1.5 2.3 1 2.6.6.3 1-.3 1-1.4 0-1.1-.4-2.3-1-2.6-.5-.3-1 .3-1 1.4zM206.2 88.1c.2.6.8 1 1.3 1s1.1-.4 1.3-1c.2-.6-.4-1.1-1.3-1.1s-1.5.5-1.3 1.1zM215.2 88.1c.2.6.8 1 1.3 1s1.1-.4 1.3-1c.2-.6-.4-1.1-1.3-1.1s-1.5.5-1.3 1.1zM235.2 89.4c-1.1 1.1-2.7 3.4-3.7 4.9-1.7 2.7-1.7 2.8.5 5.2 1.2 1.3 1.9 2.8 1.5 3.4-.4.8 2.3 1.1 8.7 1.1 5.1 0 11 .3 13.1.6 2.4.5 3.7.3 3.7-.5 0-.7-2.6-1.1-7.4-1.1-9.6 0-10.6-.4-10.6-4.6 0-1.9-.4-3.4-1-3.4-1.5 0-1.2-2.6.5-4 1.7-1.5 1.3-2.6-1.4-3.3-1.2-.3-2.7.3-3.9 1.7z"/><path d="M80.5 94.8c.4 2 0 3.6-1.3 5.3-1.8 2.1-1.8 2.5-.4 3.5s1.2 1.2-1.4 1.8c-4.6 1-7.2 8.6-2.8 8.6 1.6 0 2 5.5.4 6.5s-1.2 2.2 1 2.8c3 .8 2.4 2.8-.7 2.5-2.3-.2-2.7.1-2.5 1.7.3 2.1.3 5 .2 7.5-.1.8.2 4.2.6 7.4.5 4.2.4 5.7-.4 5.2-1.8-1.1-2.1.6-1 6.2.6 3.6.6 5.8-.1 6.6-.6.7-.8 2.8-.5 4.8l.6 3.5 7 .7c7.7.7 9.2 1.2 8.2 2.8-.4.5-4 .8-8.7.7-7.2-.3-8.1-.1-8.8 1.6-1.4 3.8-2.8 25.1-1.9 29.1.7 2.9.5 4.5-.6 6.2-1.1 1.7-1.3 3.9-.8 9.7.5 5 1 7.2 1.8 6.8.6-.3.5 0-.1.8-1.8 1.9-1.6 3.9.5 3.9 1.5.1 1.5.2-.2 1.5-1.6 1.2-2 2.7-1.9 7 0 3 .6 6.2 1.3 7 .7.9 1 1.8.6 2.2-.3.3-.6.1-.6-.5 0-.7-.4-1.2-1-1.2s-1 2.8-1 6.5v6.5l4.8-.1c2.6 0 7.4-.6 10.6-1.3 7.1-1.5 34.3-1.3 49.1.3 9.1 1 106.6 1.4 100.5.4-2-.3-2.8-1.4-4.2-5.7-2.9-8.7-2.2-10 4.6-8.9 3.1.5 3.6.3 3.6-1.4 0-2.7 3.1-5.3 6.4-5.3 3.1 0 4.4 2.4 2.8 5-1.4 2.2.2 3 6 3h4.1l-.7 5.4c-.8 7-.1 8.6 3.5 8.6h2.9l-.2-11.5c-.1-7-.6-11.6-1.2-11.8-.6-.2-8.7-.5-18.1-.6-11.8-.1-17.2-.6-17.7-1.4-.5-.7-.7-2.6-.6-4.2.3-3 .3-3 7.3-3.3 4.8-.2 7.2-.8 7.8-1.8 1.1-1.9 4.4-1.8 5.6.3.7 1.3 2.7 1.9 6.8 2.3 4.8.4 5.8.8 5.5 2.2-.2 1.1.3 1.8 1.2 1.8 1.2 0 1.4-.6.8-2.3-.7-1.9-.7-10.5-.1-14.7.4-2.6-1.3-10-2.4-10-.6 0-.8 2-.5 4.9.3 2.8.2 5.5-.3 6.2-.4.7-1-1.8-1.4-5.4-.9-8.4 1-14.2 4.6-14.2 2.4 0 2.4-.2 2.6-10.5.1-6.7-.1-9.8-.7-8.5-.5 1.1-.9 3.7-.9 5.9-.1 3.8-.1 3.8-3.3 3.2-1.9-.3-4.5-2-6-3.7-2.3-2.6-3-2.9-4.3-1.9-.8.7-1.5 2.7-1.5 4.5 0 2-.6 3.5-1.5 3.8-2.2.9-2.7-.8-1.1-3.8.8-1.4 1.1-3.5.9-4.6-.5-1.8-.8-1.8-2.7-.6-1.6 1.1-2.7 1.1-4.4.4-3.2-1.4-3.9-.1-4 7.9l-.1 6.4h6c3.3 0 6.9-.5 8-1 1.3-.8 2.5-.7 3.9 0 1.6.9 2 2.1 2 6.5 0 2.9-.4 5.6-.9 5.9-.5.3-2.4-.2-4.2-1.1-6.1-3-20.5-2.9-28.1.2-1.3.5-1.8.2-1.8-1.1 0-1.4-.3-1.5-1.2-.6-.7.7-1.7.8-2.9.1-1.2-.6-3.2-.5-6.1.6-2.4.8-5.1 1.5-6 1.5-2.9 0-3 1.9-.2 3.2 2.2 1 2.8 1 3.2 0 .8-2.6 3.3-4.1 6.3-3.7 4 .5 4 .5 4.7 6.2.2 2.6 1.1 5.7 1.8 6.8 1.7 2.4 1.8 3.9.2 2.9-.7-.4-.8-.3-.4.5.4.6 1.1.9 1.6.6 1.5-.9 3.4 3.5 2.1 4.8-.8.8-1.1.7-1.1-.2 0-1.2-5.3-7.1-6.3-7.1-.3 0-.3 1 0 2.2.4 2.1.2 2-2.1-.7-1.4-1.7-2.6-3.3-2.6-3.8 0-1.1 2.4-.9 3.7.4.7.7 1.3.7 1.7 0 .7-1-2.7-3.4-3.6-2.5-.3.2-1.1-.2-1.8-1.1-.7-.8-1.7-1.5-2.3-1.5-2.2 0-8.7-3.5-8.7-4.7 0-.7-.6-1-1.5-.7-.8.3-2.8-.5-4.5-1.9-1.6-1.4-5.5-3.1-8.5-3.8-3-.7-5.5-1.7-5.5-2.2 0-.6-.3-.8-.6-.4-.6.6-5.3-4.1-9.3-9.3-1.3-1.7-2.8-2.9-3.4-2.7-.6.2-.9 3.5-.8 8.5.1 4.5-.1 8.2-.6 8.2-.7 0-1-4-1.2-14-.1-1.4.6-3 1.4-3.6.9-.7 1.3-1.8.9-2.8-.3-.9.1-2.7 1-4.1.9-1.3 1.3-3.2.9-4.1-.4-1.1-.2-1.5.4-1.1.6.4 1.4 0 1.7-.9.8-2 .8-2-2.4-2.8-1.6-.5-2-.4-1.2.2 1 .7 1 1.1-.3 2.2-.8.7-1.5 2.5-1.5 4.1 0 1.6-.4 2.9-1 2.9-.5 0-.9-.3-.9-.8.4-2.3-.3-4.2-1.5-4.2-1.8 0-2.9 2.7-2.7 6.2.1 1.5-.3 3.6-.9 4.8-1.2 2.2-1.2 2.1-3.6-1.4-1.5-2.2-3.6-3.9-5.6-4.4-4.6-1.2-4.8-3.2-.4-3.2 5.7 0 4.5-2.6-1.9-4-2.8-.6-3.2-.5-2.8 1.1.5 1.7-.1 1.9-4.5 1.9-2.8 0-5.3-.3-5.5-.8-.2-.4-.1-4.8.3-9.7.3-5 .6-9.1.6-9.2-.1-.1-2.6-.4-5.7-.8-4.1-.5-6.6-.2-9.4.9-2 .9-4.1 1.4-4.5 1.1-1.5-.9-3.1-15-2.1-17.8 1-2.4 1.2-2.5 4.2-1.5 2.3.8 2.7 1.3 1.7 1.9-.7.5 1.4.7 5.2.3 5.2-.4 7.1-1.1 10-3.6 1.9-1.6 4.2-4.2 5.1-5.7 2.2-3.7 5.8-3.8 9.9-.4 6.2 5.3 6.7 6.1 7.8 11.9 1.5 8.3 4.2 13.7 10.3 20.3 1.7 1.8 1.9 2.5.8 3.2-.7.4-1.1 1.1-.8 1.4.4.3 1.6-.3 2.9-1.3 1.9-1.6 2.1-2.2 1.1-4-.6-1.2-1.9-2.2-2.7-2.2-1.1 0-1.4-.6-1-1.6.3-.9.6-1.8.6-2 0-1.4 1.9 0 3 2.3.7 1.6 1.5 2.3 1.7 1.6.3-1 .9-1 2.6.1 1.2.7 3.9 1.4 6 1.5 3.2.1 3.7-.1 3.7-2.1 0-3.2 8.5-8.8 12.3-8.1 2.5.5 2.7.9 2.7 5.4 0 2.7.4 4.9 1 4.9 1.2 0 1.8-4.2 2.4-17.7.2-6.2.8-11.8 1.2-12.4.5-.8 4.1-1 12.8-.5 7.4.4 12.7.3 13.6-.3 1.1-.8 1.5-3.3 1.7-9.3.2-8.3.2-8.3-1.1-3.8-1.2 4.2-1.3 4.4-2.1 2-.5-1.4-.9-3.4-.9-4.5-.2-4.4-24.1-6.3-26.8-2.1-.4.6-.5 2-.2 3.1.3 1.2 0 3.3-.5 4.8-1.4 3.6-.4 5.7 2.5 5.7 1.3 0 2.4.4 2.4 1 0 .5-.8 1-1.9 1-1.6 0-2 1.1-2.6 7.7-.7 7.1-2.3 13.9-2.5 10.3 0-1.2-.2-1.2-.9-.2-.6 1.1-1.1 1-2.4-.3-.9-.9-2.1-1.4-2.6-1.1-.5.3-1.2-.1-1.5-1-.4-.9-1.3-1.4-2.1-1-.8.3-1.5.1-1.5-.4s1-1 2.3-1.2c1.2-.2-.9-.5-4.8-.6-3.8-.1-7.1-.6-7.3-1.2-.2-.5-1.7-.7-3.3-.3-3.9.8-7-1.9-6.7-5.9.1-1.6.5-3.1.9-3.4.4-.2 3.7-.5 7.3-.6 5-.1 6.6-.5 6.6-1.6 0-1-.7-1.3-2.1-.9-2.5.7-3.7-1.7-1.9-3.8.7-.8 2.3-1.5 3.7-1.5 3.5 0 2.7-3.4-1-3.8-1.5-.2-2.5-.7-2.2-1.2.7-1.2-3.3-3.3-5-2.7-.7.3-2.5-.1-4-.9-2.2-1.1-2.6-1.1-2.2-.1.8 2.1-.7 3.8-3.8 4.1l-2.8.4.7-6.4.7-6.4H154c-4.5 0-4.4-.1-3 3.5 1 2.5.9 2.6-2.5 1.9-2.4-.4-3.5-.3-3.5.6 0 .7.7 1 1.5.7.8-.4 1.7-.2 2 .3.4.6 0 1-.7 1-1 0-.9.3.2 1 .8.5 1.1 1.2.7 1.6-.3.4-1.4.1-2.4-.7-1.1-.9-1.4-1-.9-.2 1 1.7-.6 1.6-3-.2-1.1-.8-1.4-1.5-.6-1.5 1.4 0 1.7-3 .2-3-.5 0-1 .5-1 1.2 0 .9-.3.9-1.1.1s-1.8-.8-3-.2c-1.1.5-2.8 1.3-3.9 1.9-1.3.6-2.8.6-4.5 0-2.8-1.1-2.6-3 .3-3 1.5 0 1.5-.2.2-1-1-.6-1.6-.6-1.8 0-.2.6-.8.8-1.3.4-.5-.3-.9.2-.9 1 0 1.6-1 2-4.5 1.6-1.6-.2-1.7 0-.6 1.4.8 1 .9 1.6.3 1.6-.6 0-1.4-.9-1.7-2-.6-1.9-1.4-2-13.3-1.8-7 0-11.3.3-9.5.5 2.6.3 3.4 1.1 4.3 3.7.6 1.8 2.2 4.8 3.5 6.6l2.5 3.4-2.2 2.3c-1.2 1.3-1.8 2.3-1.4 2.3.5 0 .3.7-.4 1.5s-2.3 1.5-3.7 1.5c-1.3 0-3.4.7-4.7 1.5-2.1 1.4-2.4 1.4-2.9 0-.4-1-2-1.5-4.8-1.5-3.2 0-4-.3-3.6-1.4.3-.8.1-1.7-.6-2-.7-.3.6-.5 2.8-.3l4 .2.3-7.7c.2-5.6-.2-8.6-1.3-10.8-1-2-1.4-4.2-1-6 .3-1.6.2-3.1-.4-3.5-.6-.3-1.1-1.5-1.1-2.6s-.4-1.7-1-1.4c-.5.3-1 .1-1-.4 0-.6.5-1.1 1-1.1.6 0 1-.9 1-2 0-1.5-.7-2-2.6-2-2.3 0-2.5.3-1.9 2.8zm3.5 9.7c0 .9-.6 1.2-1.5.9-.8-.4-1.5-1-1.5-1.5s.7-.9 1.5-.9 1.5.7 1.5 1.5zm-5.4 8.2c-1 1-1.9-.5-1-1.8.6-1.1.8-1.1 1.2 0 .2.7.1 1.5-.2 1.8zm124.5 2.3c-2.8 2.4-4.1 2.5-4.1.6 0-1.3 1.8-2 5.5-2.4.6-.1-.1.8-1.4 1.8zm-90.1 2.1c-1.5 2.7-3.1 3.2-6.3 2-4.9-1.9-2.9-3.4 5.1-4 2-.1 2.1.1 1.2 2zm57.7.5c-.3.3-1.2.4-1.9.1-.8-.3-.5-.6.6-.6 1.1-.1 1.7.2 1.3.5zM82.5 121c.3.5-.1 1-.9 1-.9 0-1.6-.5-1.6-1 0-.6.4-1 .9-1 .6 0 1.3.4 1.6 1zm16.3 22.2c-.6 1.8-2.8 2.1-2.8.4 0-.9.7-1.6 1.6-1.6.9 0 1.4.5 1.2 1.2zm85.5 4.2c.9 1.3 1.3 2.6 1 3-1.1 1.1-4.1.6-4.6-.7-.4-1-.7-1-1.8 0-1.5 1.5-6.3 1.8-5.4.3.3-.6 1.5-1 2.6-1 1 0 1.9-.6 1.9-1.4 0-1.2 1.2-1.9 4.1-2.5.4 0 1.4 1 2.2 2.3zm-87 2.6c.3 1.1.1 1.8-.4 1.4-.5-.3-.9-1.2-.9-2 0-2 .7-1.7 1.3.6zm-8.3 2.8c0 1.6-3.9 4.4-5.2 3.9-.8-.4-.7-.6.5-.6 2.8-.2 1.9-2.1-1-2.2-2.5-.2-2.4-.2.7-.9 1.9-.4 3.8-.8 4.3-.9.4 0 .7.3.7.7zm12 4.3c0 .5-.4.9-1 .9-.5 0-1-.7-1-1.6 0-.8.5-1.2 1-.9.6.3 1 1 1 1.6zm73.2 1.4c0 .5-.5 1.1-1.1 1.3-.6.2-1.1-.4-1.1-1.3s.5-1.5 1.1-1.3c.6.2 1.1.8 1.1 1.3zm-71.2 2.1c0 .3-.7 1.2-1.5 2.1-1.1 1.1-2.6 1.3-5.2.8-5.3-1-3.2-2.3 5.5-3.4.6 0 1.2.2 1.2.5zm11.8 8l3.6 1.5-2.8 1.9c-2.7 1.7-3.1 1.7-5.3.3-1.7-1.1-2.3-2.5-2.3-5.2 0-4.7 1.2-6 2.3-2.6.6 1.6 2.2 3.1 4.5 4.1zm-11.1 3.8c1.2 3.6 1.2 3.7-1 3.6-5.6-.5-6.5 0-7.7 3.6-1.4 4.1-3.4 4-3.7-.2 0-1.6-.4-3.8-.7-4.9-.9-2.8.6-4.6 4.5-5.5 5.6-1.3 7.1-.7 8.6 3.4zm5.3 5.6c0 .5-.7.7-1.5.4-.8-.4-1.5-.8-1.5-1 0-.2.7-.4 1.5-.4s1.5.4 1.5 1zm-2.6 2.5c2 .8 3.6 2.2 3.6 3 0 .8.5 1.5 1 1.5.6 0 1 .5 1 1.1 0 .6-.7.9-1.5.5-1-.4-1.8.6-2.6 3.7-.6 2.3-1.3 4.6-1.6 5-.9 1.5-3.3-1.6-3.3-4.4 0-1.8-.7-3.2-1.9-3.9-2.9-1.5-3.7-5.1-1.5-6.7 2.2-1.6 2.4-1.6 6.8.2zM93 195c0 .5-.4 1-.9 1-.6 0-1.3-.5-1.6-1-.3-.6.1-1 .9-1 .9 0 1.6.4 1.6 1zm79 7.7c0 .8-.4 1.1-1 .8-.5-.3-1.8-.1-2.7.5-1.3.8-1.4 1-.3.9 2.6-.3 5 1.2 5 3.3 0 1-.4 1.6-1 1.3-.5-.3-1.1.4-1.1 1.7-.1 1.8-.3 1.7-.8-.7-.5-2.3-1.2-3.1-3.4-3.3-3.7-.4-3.9-4.2-.2-4.2 1.6 0 2.5-.6 2.5-1.6 0-1.1-.6-1.5-2-1.1-2.2.6-2.9-1.8-.7-2.6 1.5-.5 5.7 3.1 5.7 5zm-68 .8c-1.9 1.4-3.8 2.5-4.4 2.5-1.2 0-.3-.9 3.1-3.1 4.2-2.7 5.1-2.2 1.3.6zm-6.2 3.7c-.3.7-1.5 1.5-2.8 1.6-2.1.3-2.2.2-1.1-1.2 1.6-1.9 4.4-2.1 3.9-.4zm147.3 1.5c2.7 2.7 1.8 5.8-2.4 8-4.1 2.1-12.9 2.1-16.1-.1-1.4-.9-3.2-1.6-4-1.6-2.2 0-2.7-2.7-.8-4.9 3.6-4.4 19.4-5.3 23.3-1.4zm-132.2-1.4c-.2.1-1.3.9-2.4 1.7-1.9 1.4-1.9 1.4-.6-.3.7-.9 1.8-1.7 2.4-1.7.6 0 .8.1.6.3zM168 209c0 .5-.5 1-1.1 1-.5 0-.7-.5-.4-1 .3-.6.8-1 1.1-1 .2 0 .4.4.4 1zm19.8.6c1.2.4 2.2 1.3 2.2 2.2 0 1.3-.3 1.2-2-.3-1.8-1.6-2-1.6-2-.2 0 2-1.1 2.2-2.8.5-2.6-2.6-.5-3.5 4.6-2.2zm-117.7 3.5c-.5 1.3-1 1.9-1 1.2-.1-1.5 1-4.5 1.5-4 .3.2 0 1.5-.5 2.8zm124.8 6.4c0 2.5-.3 2-1.9-2.5-2.5-7-2.5-8.5 0-4 1.1 1.9 1.9 4.8 1.9 6.5zM86 214.4c0 1.1-1.9 1.5-2.5.6-.3-.5.1-1 .9-1 .9 0 1.6.2 1.6.4zm29.5.5c.3.5.1 1.2-.4 1.5-.5.3-1.1-.1-1.5-.9-.6-1.6.9-2.1 1.9-.6zm71.5 1c.5 1.1 1 3 .9 4.3 0 1.5-.3 1.8-.6.8-.3-.8-1.2-1.9-1.9-2.3-1.6-.9-1.9-4.7-.4-4.7.5 0 1.4.9 2 1.9zm4.9 3.6c-.1 2.9-.1 2.9-.9.5-.4-1.4-.8-3.4-.9-4.5-.1-1.6.1-1.7.9-.5.5.8.9 2.8.9 4.5zm-111-1.4c-1.6 1.2-2.5 1.4-2.8.7-.5-1.4 2.9-3.9 4.2-3.1.5.3-.1 1.4-1.4 2.4zm30.8-.9c-.3.8-.6.5-.6-.6-.1-1.1.2-1.7.5-1.3.3.3.4 1.2.1 1.9zm85.9-1.3c-.4.5 0 1.2.6 1.4.8.4.7.6-.3.6-.9.1-1.9-.6-2.3-1.4-.3-.9 0-1.5 1-1.5.8 0 1.3.4 1 .9zm-108.2 3.6c-.4.8-.8 1.5-1 1.5-.2 0-.4-.7-.4-1.5s.4-1.5 1-1.5c.5 0 .7.7.4 1.5zm-13.6 1.7c-.3.7-1.3 1.5-2.4 1.7-1.6.3-1.7.1-.5-1.3 1.6-1.9 3.4-2.1 2.9-.4zm91.2.8c0 2.1-2.4 2.8-3.5 1-.8-1.4.3-3 2.1-3 .8 0 1.4.9 1.4 2zm-61 .5c0 .8-.4 1.5-1 1.5-.5 0-.7-.7-.4-1.5.4-.8.8-1.5 1-1.5.2 0 .4.7.4 1.5zm64.4-.9c.9.3 1.6 1.3 1.6 2.1 0 2-3.4 1.2-3.8-1-.4-1.9-.1-2 2.2-1.1zm57.6.4c0 .5-.5 1-1.1 1-.5 0-.7-.5-.4-1 .3-.6.8-1 1.1-1 .2 0 .4.4.4 1zm-53.5.9c.3.5.1 1.2-.5 1.6-.5.3-1-.1-1-.9 0-1.8.6-2.1 1.5-.7zm-93.4 5.4c-1.7 1.7-2.4.1-1-2.5 1.2-2.1 1.4-2.1 1.7-.4.2 1-.1 2.3-.7 2.9zm137.6 3.9c-.3.8-.6.5-.6-.6-.1-1.1.2-1.7.5-1.3.3.3.4 1.2.1 1.9zm-22.7 1.3c0 .8-.4 1.5-1 1.5-.5 0-.7-.7-.4-1.5.4-.8.8-1.5 1-1.5.2 0 .4.7.4 1.5zm17 .3c0 1-.7 1.9-1.5 1.9s-1.5-.9-1.5-1.9c0-1 .7-1.8 1.5-1.8s1.5.8 1.5 1.8zm-41.3 2.4c-.3.7-.5.2-.5-1.2s.2-1.9.5-1.3c.2.7.2 1.9 0 2.5zm16.3-1.5c0 1-.4 1.4-.8.8-.4-.6-1.1-1.3-1.6-1.8-.5-.4-.2-.7.7-.7 1 0 1.7.8 1.7 1.7zm29 1c0 2.1-.3 2.4-.9 1.4-.5-.8-.7-2-.4-2.8.8-2.1 1.3-1.5 1.3 1.4zm-5.5 3.3c.3.5.1 1-.4 1-.6 0-1.1-.5-1.1-1 0-.6.2-1 .4-1 .3 0 .8.4 1.1 1zm12.2 3.2c-.3.8-.6.5-.6-.6-.1-1.1.2-1.7.5-1.3.3.3.4 1.2.1 1.9zm-12.2-.2c-.3.5-1 1-1.6 1-.5 0-.9-.5-.9-1 0-.6.7-1 1.6-1 .8 0 1.2.4.9 1zm-23.8.6c-.3.3-1.2.4-1.9.1-.8-.3-.5-.6.6-.6 1.1-.1 1.7.2 1.3.5zm-24 1c-.3.3-1.2.4-1.9.1-.8-.3-.5-.6.6-.6 1.1-.1 1.7.2 1.3.5zm58 2.6c-.3.8-.6.5-.6-.6-.1-1.1.2-1.7.5-1.3.3.3.4 1.2.1 1.9zm-1.7 1.7c0 .5-.6 1.4-1.4 2-1.2 1-1.3.8-.9-.8.5-2.1 2.3-3 2.3-1.2z"/><path d="M102.7 181.7c-1.2 1.1-.8 2.3.8 2.3.8 0 1.5-.7 1.5-1.5 0-1.6-1.2-2-2.3-.8zM230.8 213.7c.7.3 1.6.2 1.9-.1.4-.3-.2-.6-1.3-.5-1.1 0-1.4.3-.6.6zM147 96.4c0 3.1 1.8 4.3 2.7 2 .4-1 .2-1.9-.5-2.2-.7-.2-1-.8-.6-1.3.3-.5 0-.9-.5-.9-.6 0-1.1 1.1-1.1 2.4zM227.1 98.6c0 1.1.3 1.4.6.6.3-.7.2-1.6-.1-1.9-.3-.4-.6.2-.5 1.3zM137.7 100.1c.8.8 1.6.8 3 0 1.6-.9 1.4-1-1.1-1.1-2.2 0-2.7.3-1.9 1.1zM129.5 103.3c-7.2 3.7-7 3.6-6.3 4.2.2.3 3.5-1.1 7.1-2.9 3.7-1.9 6.4-3.7 5.9-4-.4-.2-3.4 1-6.7 2.7zM139.8 103.3c-1.6.6-2.8 1.4-2.8 1.8 0 1.2 4.9-.3 5.4-1.7.3-.8.4-1.4.3-1.3-.1.1-1.4.6-2.9 1.2zM133.7 105.4c-.3.8-1.6 1.6-2.9 1.9-2.2.4-2.2.4.2.5 3.4.2 5.8-1.4 4.4-2.8-.8-.8-1.3-.7-1.7.4zM191.7 106.5c-.4.8-.9 6.4-1.3 12.5-.6 9.8-.5 11 1 11 1.4 0 1.6-1.6 1.6-12.5 0-6.9-.2-12.5-.4-12.5s-.6.7-.9 1.5zM63.1 109c0 1.4.6 5.4 1.4 9l1.4 6.5-.5-6c-.2-3.3-.8-7.4-1.3-9-.9-2.8-.9-2.8-1-.5zM120 107.9c0 .6.5 1.3 1 1.6.6.3 1-.1 1-.9 0-.9-.4-1.6-1-1.6-.5 0-1 .4-1 .9zM227 109.9c0 1.2.6 2.1 1.5 2.1.8 0 1.5-.4 1.5-.9s-.7-1.4-1.5-2.1c-1.3-1-1.5-.9-1.5.9zM232.7 109.7c-.9.2-1.5.9-1.2 1.4.4.5.1.9-.4.9-.6 0-1.1.7-1.1 1.6 0 .8.4 1.3.8 1 .5-.3.6 2.2.4 5.5-.4 5.2-.2 5.9 1.2 5.3 1-.4 1.4-1.3 1.1-2.4-.4-1.1.3-2 2-2.8 3.2-1.5 3.2-1.5 3.9.3.3.9.1 1.5-.7 1.4-4.4-.5-5.3 3.4-1.2 5.3 1.3.6 2.2 1.5 1.9 1.9-.3.5-1.8.2-3.3-.5-2.7-1.5-2.8-1.4-2.8 1.5 0 2.4.6 3.1 3.1 3.8 1.7.4 3 1.4 2.8 2-.6 2.7 2.6 3.9 11.6 4.2 7 .3 9.2.1 9.2-.9 0-.8-.8-1-2.7-.6-2.2.6-2.5.4-2-1 .4-1 .7-2.3.7-3.1 0-.7.9-1.5 1.9-1.8 1.8-.4 2-1.4 2-9.3 0-12.5-.4-12.9-12.7-12.9-5.3 0-10.4-.3-11.2-.6-.8-.4-2.3-.5-3.3-.2zm10.8 14.4c.6 1.9 0 3.8-.9 2.8-1-1.2-1.6-4.9-.7-4.9.5 0 1.3.9 1.6 2.1zm0 10.9c.3.5.1 1-.4 1-.6 0-1.1-.5-1.1-1 0-.6.2-1 .4-1 .3 0 .8.4 1.1 1zM182.5 118c-.3.5.1 1 .9 1 .9 0 1.6-.5 1.6-1 0-.6-.4-1-.9-1-.6 0-1.3.4-1.6 1zM93.6 126.8c-.6 1-.2 3.9.7 4.8.4.4.7-.7.7-2.4 0-3.2-.4-3.9-1.4-2.4zM231.6 148.7c-.4 7.1-.9 14.7-1.2 17l-.5 4.3h3.5c2 0 3.6-.5 3.6-1.1 0-.5-.5-.7-1-.4-1.5 1-2.4-2.3-1-4 .8-.9 1.1-5 .9-12.3-.1-5.9.1-11.4.5-12 .4-.7.2-1.2-.3-1.2-.6 0-1.1-.7-1.1-1.5s-.6-1.5-1.4-1.5c-1.1 0-1.5 2.8-2 12.7zM202.2 141.7c-.5 1-1.2 6.1-1.4 11.3-.3 5.2-.2 8.4.2 7 .5-1.4.9-5 .9-8 .2-10.6-.2-10.3 12-9.5 14.4.9 14.4.9 13.8 5.4-1.3 8.5-1.8 18.6-.9 17.2.8-1.1 2.7-18.8 2.3-21.8 0-.5-4.1-1.1-9-1.4-4.9-.4-10.7-1-12.9-1.4-3.3-.5-4.2-.3-5 1.2z"/><path d="M205 145.5c0 .8.5 1.5 1 1.5.6 0 1-.7 1-1.5s-.4-1.5-1-1.5c-.5 0-1 .7-1 1.5zM139.2 152.5c-5.6 1.3-9.8 4.3-7.4 5.2.6.3 1.2 1.5 1.2 2.9s.9 2.9 2.3 3.8c2.7 1.7 9.2 3.2 8.4 1.9-.7-1.1 1.8-3.3 5.7-5.1 2.2-1 2.7-1.7 2.2-3.5-.3-1.2-.6-2.7-.6-3.4 0-.8-5.8-3.7-6.4-3.2-.1 0-2.5.7-5.4 1.4zM220.4 157.4c-.6.7-1.5 2.2-1.8 3.4-.6 1.8-.3 2.2 1.3 2.2 1.7 0 2.1-.6 2.1-3.5 0-3.9 0-4-1.6-2.1zM146.5 169c.3.5.8 1 1.1 1 .2 0 .4-.5.4-1 0-.6-.5-1-1.1-1-.5 0-.7.4-.4 1zM190.6 170.5c-1 3.4-1.2 22.2-.2 23.2 1.4 1.4 1.6-1 1.4-13.3-.2-9.6-.5-12.1-1.2-9.9zM197 177.2c.1 3.2 2.7 4.6 8.8 4.9 3.4.1 6.5-.1 6.9-.4.3-.4 1.6-.7 2.7-.6 2.1 0 2.1.1.1.9-1.6.7-1.1.9 2 .9 5.2.1 6.4-.8 5.8-4.2-.5-2.6-.8-2.7-6.4-2.7-4.1 0-5.9.4-5.9 1.2 0 .9-2 1.4-6 1.5-4.7.2-6-.1-6-1.2 0-.8-.4-1.5-1-1.5-.5 0-1 .6-1 1.2zm6.7 3.4c-.3.3-1.2.4-1.9.1-.8-.3-.5-.6.6-.6 1.1-.1 1.7.2 1.3.5zM226.6 178.7c-.9 3.1-.6 15.3.4 15.3.6 0 1-3.7 1-8.5 0-8.4-.4-10.2-1.4-6.8zM164.6 180.6c-1.7 1.6-1.3 3.4.7 3.4.7 0 2.3 1.2 3.6 2.5 1.7 1.8 2.1 3.2 1.7 4.9-.8 3.1.4 3.9 4.9 3 3.9-.7 4-1 2.4-5.1-.7-1.5-1.1-4-1-5.6.3-3.1-1.5-3.6-3.5-1-1.1 1.7-1.4 1.6-3.4-1-2.5-3.1-3.3-3.3-5.4-1.1zM198.8 184.7c.7.3 1.6.2 1.9-.1.4-.3-.2-.6-1.3-.5-1.1 0-1.4.3-.6.6zM203 189.3c0 1.4 4.1 3.3 9.3 4.1 2.3.5 3.7.3 3.7-.4 0-.5-.4-1-.9-1s-.7-.9-.4-1.9c.5-1.8 0-2-5.6-2-4 .1-6.1.5-6.1 1.2zM219.6 188.8c-.3.6.3 1.2 1.5 1.5 1.2.3 1.9.1 1.6-.6-.5-1.5-2.4-2-3.1-.9zM214.7 197.7c-.4.3-.7 1.1-.7 1.7 0 .6.5.5 1.2-.2.6-.6.9-1.4.7-1.7-.3-.3-.9-.2-1.2.2zM54.2 205c.2 3.5.8 6.5 1.4 6.7.8.3.8-1.5.2-5.8-1.1-8.4-2-8.8-1.6-.9zM59.1 208c0 2.5.4 5.2.9 6 .7 1.1.9.8.9-1.5-.1-1.7-.5-4.4-.9-6-.7-2.7-.8-2.6-.9 1.5zM210 212c0 .5.5 1 1 1 .6 0 1-.5 1-1 0-.6-.4-1-1-1-.5 0-1 .4-1 1zM258.7 217.7c-.8 1.5-.5 10.3.4 10.3.5 0 .9-2.5.9-5.5 0-5.2-.3-6.5-1.3-4.8zM13 226c0 .5 1.3 1 2.9 1 1.7 0 3.3-.5 3.6-1 .4-.6-.8-1-2.9-1-2 0-3.6.4-3.6 1zM238.1 240.9c-1.7 1.1-.7 4.5 1.2 3.9.6-.3 1.3-1.4 1.3-2.6.1-2.4-.4-2.6-2.5-1.3z"/></svg>